<svg xmlns="http://www.w3.org/2000/svg" width="259.27" height="35" viewBox="0 0 259.27 35"><rect class="svg__rect" x="0" y="0" width="88.78" height="35" fill="#8FC965"/><rect class="svg__rect" x="86.78" y="0" width="172.49" height="35" fill="#5D9741"/><path class="svg__text" d="M17.33 22L14.22 22L14.22 13.47L17.14 13.47Q18.59 13.47 19.34 14.05Q20.10 14.63 20.10 15.78L20.10 15.78Q20.10 16.36 19.78 16.83Q19.47 17.30 18.86 17.56L18.86 17.56Q19.55 17.75 19.93 18.26Q20.31 18.78 20.31 19.51L20.31 19.51Q20.31 20.71 19.53 21.36Q18.76 22 17.33 22L17.33 22ZM15.70 18.15L15.70 20.82L17.35 20.82Q18.04 20.82 18.44 20.47Q18.83 20.13 18.83 19.51L18.83 19.51Q18.83 18.18 17.47 18.15L17.47 18.15L15.70 18.15ZM15.70 14.66L15.70 17.06L17.15 17.06Q17.84 17.06 18.23 16.75Q18.62 16.43 18.62 15.86L18.62 15.86Q18.62 15.23 18.26 14.95Q17.90 14.66 17.14 14.66L17.14 14.66L15.70 14.66ZM30.35 22L24.78 22L24.78 13.47L30.31 13.47L30.31 14.66L26.26 14.66L26.26 17.02L29.76 17.02L29.76 18.19L26.26 18.19L26.26 20.82L30.35 20.82L30.35 22ZM36.11 22L34.64 22L34.64 13.47L36.11 13.47L36.11 22ZM40.32 19.57L40.32 19.57L41.80 19.57Q41.80 20.25 42.13 20.59Q42.47 20.93 43.11 20.93L43.11 20.93Q43.71 20.93 44.06 20.54Q44.42 20.14 44.42 19.45L44.42 19.45L44.42 13.47L45.89 13.47L45.89 19.45Q45.89 20.68 45.13 21.40Q44.36 22.12 43.11 22.12L43.11 22.12Q41.77 22.12 41.05 21.44Q40.32 20.77 40.32 19.57ZM52.14 22L50.66 22L50.66 13.47L52.14 13.47L52.14 22ZM58.43 22L56.95 22L56.95 13.47L58.43 13.47L62.25 19.54L62.25 13.47L63.72 13.47L63.72 22L62.23 22L58.43 15.95L58.43 22ZM68.21 18.13L68.21 18.13L68.21 17.46Q68.21 15.53 69.14 14.44Q70.06 13.35 71.72 13.35L71.72 13.35Q73.14 13.35 73.98 14.05Q74.82 14.76 74.99 16.08L74.99 16.08L73.54 16.08Q73.29 14.54 71.75 14.54L71.75 14.54Q70.75 14.54 70.24 15.26Q69.72 15.98 69.70 17.37L69.70 17.37L69.70 18.02Q69.70 19.40 70.28 20.17Q70.87 20.93 71.90 20.93L71.90 20.93Q73.04 20.93 73.52 20.42L73.52 20.42L73.52 18.75L71.76 18.75L71.76 17.62L75.00 17.62L75.00 20.89Q74.53 21.50 73.71 21.81Q72.89 22.12 71.85 22.12L71.85 22.12Q70.78 22.12 69.95 21.63Q69.13 21.14 68.68 20.24Q68.23 19.33 68.21 18.13Z" fill="#FFFFFF"/><path class="svg__text" d="M105.51 22L100.97 22L100.97 13.60L105.27 13.60Q106.87 13.60 107.71 14.19Q108.56 14.79 108.56 15.79L108.56 15.79Q108.56 16.39 108.26 16.87Q107.96 17.34 107.42 17.62L107.42 17.62Q108.15 17.87 108.55 18.41Q108.96 18.94 108.96 19.70L108.96 19.70Q108.96 20.80 108.07 21.40Q107.18 22 105.51 22L105.51 22ZM103.32 18.58L103.32 20.28L105.32 20.28Q106.56 20.28 106.56 19.43L106.56 19.43Q106.56 18.58 105.32 18.58L105.32 18.58L103.32 18.58ZM103.32 15.31L103.32 16.94L104.95 16.94Q106.15 16.94 106.15 16.12L106.15 16.12Q106.15 15.31 104.95 15.31L104.95 15.31L103.32 15.31ZM112.60 20.93L112.60 20.93L113.89 19.40Q114.56 20.27 115.34 20.27L115.34 20.27Q115.34 20.27 115.35 20.27L115.35 20.27Q115.86 20.27 116.13 19.96Q116.40 19.65 116.40 19.05L116.40 19.05L116.40 15.44L113.50 15.44L113.50 13.60L118.76 13.60L118.76 18.91Q118.76 20.54 117.93 21.36Q117.11 22.17 115.52 22.17L115.52 22.17Q114.59 22.17 113.84 21.85Q113.08 21.53 112.60 20.93ZM123.33 20.75L123.33 20.75Q123.33 20.15 123.72 19.78Q124.11 19.41 124.70 19.41L124.70 19.41Q125.30 19.41 125.68 19.78Q126.06 20.15 126.06 20.75L126.06 20.75Q126.06 21.34 125.67 21.72Q125.28 22.11 124.70 22.11L124.70 22.11Q124.12 22.11 123.72 21.72Q123.33 21.34 123.33 20.75ZM132.57 22L129.86 22L132.92 17.75L129.99 13.60L132.67 13.60L134.35 16.02L136.00 13.60L138.57 13.60L135.64 17.66L138.77 22L136.03 22L134.29 19.40L132.57 22ZM144.47 22L142.04 22L145.75 13.60L148.09 13.60L151.81 22L149.34 22L148.68 20.37L145.13 20.37L144.47 22ZM146.91 15.93L145.82 18.61L147.98 18.61L146.91 15.93ZM158.55 22L154.96 13.60L157.53 13.60L159.81 19.07L162.13 13.60L164.48 13.60L160.89 22L158.55 22ZM171.02 22L168.64 22L168.64 13.60L171.02 13.60L171.02 22ZM182.93 22L176.19 22L176.19 13.60L182.78 13.60L182.78 15.44L178.55 15.44L178.55 16.85L182.28 16.85L182.28 18.63L178.55 18.63L178.55 20.17L182.93 20.17L182.93 22ZM190.12 22L187.74 22L187.74 13.60L191.58 13.60Q192.73 13.60 193.56 13.98Q194.40 14.35 194.86 15.06Q195.32 15.76 195.32 16.71L195.32 16.71Q195.32 17.62 194.89 18.30Q194.46 18.98 193.67 19.36L193.67 19.36L195.48 22L192.94 22L191.41 19.77L190.12 19.77L190.12 22ZM190.12 15.47L190.12 17.93L191.44 17.93Q192.17 17.93 192.54 17.61Q192.91 17.29 192.91 16.71L192.91 16.71Q192.91 16.12 192.54 15.79Q192.17 15.47 191.44 15.47L191.44 15.47L190.12 15.47ZM199.59 20.75L199.59 20.75Q199.59 20.15 199.98 19.78Q200.37 19.41 200.96 19.41L200.96 19.41Q201.56 19.41 201.94 19.78Q202.32 20.15 202.32 20.75L202.32 20.75Q202.32 21.34 201.93 21.72Q201.54 22.11 200.96 22.11L200.96 22.11Q200.38 22.11 199.98 21.72Q199.59 21.34 199.59 20.75ZM208.40 22L205.97 22L209.68 13.60L212.03 13.60L215.74 22L213.27 22L212.61 20.37L209.06 20.37L208.40 22ZM210.84 15.93L209.75 18.61L211.92 18.61L210.84 15.93ZM219.31 21.24L219.31 21.24L220.09 19.49Q220.65 19.86 221.40 20.09Q222.14 20.32 222.86 20.32L222.86 20.32Q224.23 20.32 224.23 19.64L224.23 19.64Q224.23 19.28 223.84 19.11Q223.45 18.93 222.59 18.74L222.59 18.74Q221.64 18.53 221.00 18.30Q220.36 18.06 219.91 17.55Q219.46 17.03 219.46 16.16L219.46 16.16Q219.46 15.39 219.88 14.77Q220.29 14.15 221.13 13.79Q221.96 13.43 223.17 13.43L223.17 13.43Q224.00 13.43 224.80 13.62Q225.61 13.80 226.22 14.17L226.22 14.17L225.49 15.93Q224.29 15.28 223.16 15.28L223.16 15.28Q222.45 15.28 222.13 15.49Q221.81 15.70 221.81 16.04L221.81 16.04Q221.81 16.37 222.19 16.54Q222.57 16.71 223.42 16.89L223.42 16.89Q224.38 17.10 225.01 17.33Q225.64 17.56 226.11 18.07Q226.57 18.58 226.57 19.46L226.57 19.46Q226.57 20.21 226.15 20.83Q225.73 21.44 224.89 21.80Q224.05 22.17 222.85 22.17L222.85 22.17Q221.83 22.17 220.87 21.92Q219.91 21.67 219.31 21.24ZM233.52 22L231.15 22L231.15 13.60L233.52 13.60L233.52 22ZM240.12 22L237.69 22L241.40 13.60L243.74 13.60L247.46 22L244.99 22L244.33 20.37L240.78 20.37L240.12 22ZM242.55 15.93L241.47 18.61L243.63 18.61L242.55 15.93Z" fill="#FFFFFF" x="99.78"/></svg>