<svg xmlns="http://www.w3.org/2000/svg" width="270.73" height="35" viewBox="0 0 270.73 35"><rect class="svg__rect" x="0" y="0" width="128.29000000000002" height="35" fill="#3AC1D0"/><rect class="svg__rect" x="126.29" y="0" width="144.44" height="35" fill="#5593C7"/><path class="svg__text" d="M13.91 18.00L13.91 18.00L13.91 17.52Q13.91 16.28 14.35 15.32Q14.80 14.37 15.60 13.86Q16.41 13.35 17.45 13.35L17.45 13.35Q18.50 13.35 19.31 13.85Q20.11 14.35 20.55 15.29Q20.99 16.23 21.00 17.48L21.00 17.48L21.00 17.96Q21.00 19.17 20.61 20.06Q20.23 20.95 19.54 21.47L19.54 21.47L21.00 22.61L20.04 23.48L18.23 22.04Q17.87 22.12 17.46 22.12L17.46 22.12Q16.43 22.12 15.61 21.61Q14.80 21.10 14.36 20.17Q13.92 19.23 13.91 18.00ZM15.39 17.46L15.39 17.96Q15.39 19.34 15.94 20.12Q16.48 20.90 17.46 20.90L17.46 20.90Q18.45 20.90 18.98 20.15Q19.51 19.40 19.51 17.96L19.51 17.96L19.51 17.51Q19.51 16.07 18.97 15.33Q18.43 14.58 17.45 14.58L17.45 14.58Q16.49 14.58 15.95 15.33Q15.41 16.09 15.39 17.46L15.39 17.46ZM25.19 18.00L25.19 18.00L25.19 17.52Q25.19 16.28 25.63 15.32Q26.07 14.37 26.88 13.86Q27.68 13.35 28.72 13.35L28.72 13.35Q29.77 13.35 30.58 13.85Q31.39 14.35 31.82 15.29Q32.26 16.23 32.27 17.48L32.27 17.48L32.27 17.96Q32.27 19.17 31.89 20.06Q31.50 20.95 30.81 21.47L30.81 21.47L32.28 22.61L31.31 23.48L29.50 22.04Q29.14 22.12 28.73 22.12L28.73 22.12Q27.70 22.12 26.89 21.61Q26.08 21.10 25.63 20.17Q25.19 19.23 25.19 18.00ZM26.67 17.46L26.67 17.96Q26.67 19.34 27.21 20.12Q27.75 20.90 28.73 20.90L28.73 20.90Q29.72 20.90 30.25 20.15Q30.78 19.40 30.78 17.96L30.78 17.96L30.78 17.51Q30.78 16.07 30.24 15.33Q29.70 14.58 28.72 14.58L28.72 14.58Q27.76 14.58 27.22 15.33Q26.68 16.09 26.67 17.46L26.67 17.46ZM42.47 18.19L42.47 18.19L42.47 17.39Q42.47 16.19 42.90 15.27Q43.33 14.35 44.13 13.85Q44.93 13.35 45.98 13.35L45.98 13.35Q47.39 13.35 48.25 14.12Q49.11 14.89 49.25 16.29L49.25 16.29L47.77 16.29Q47.67 15.37 47.24 14.96Q46.81 14.55 45.98 14.55L45.98 14.55Q45.01 14.55 44.49 15.26Q43.97 15.96 43.96 17.33L43.96 17.33L43.96 18.09Q43.96 19.47 44.45 20.20Q44.95 20.92 45.90 20.92L45.90 20.92Q46.78 20.92 47.22 20.53Q47.66 20.14 47.77 19.22L47.77 19.22L49.25 19.22Q49.12 20.59 48.24 21.35Q47.36 22.12 45.90 22.12L45.90 22.12Q44.89 22.12 44.11 21.63Q43.33 21.15 42.91 20.26Q42.49 19.37 42.47 18.19ZM55.05 22L53.56 22L53.56 13.47L55.05 13.47L55.05 17.02L58.86 17.02L58.86 13.47L60.34 13.47L60.34 22L58.86 22L58.86 18.21L55.05 18.21L55.05 22ZM65.86 22L64.31 22L67.54 13.47L68.87 13.47L72.10 22L70.55 22L69.85 20.01L66.55 20.01L65.86 22ZM68.20 15.28L66.96 18.82L69.44 18.82L68.20 15.28ZM77.53 22L76.05 22L76.05 13.47L77.53 13.47L81.35 19.54L81.35 13.47L82.82 13.47L82.82 22L81.34 22L77.53 15.95L77.53 22ZM89.04 22L87.56 22L87.56 13.47L89.04 13.47L92.86 19.54L92.86 13.47L94.33 13.47L94.33 22L92.84 22L89.04 15.95L89.04 22ZM104.64 22L99.07 22L99.07 13.47L104.60 13.47L104.60 14.66L100.55 14.66L100.55 17.02L104.05 17.02L104.05 18.19L100.55 18.19L100.55 20.82L104.64 20.82L104.64 22ZM114.20 22L108.84 22L108.84 13.47L110.32 13.47L110.32 20.82L114.20 20.82L114.20 22Z" fill="#FFFFFF"/><path class="svg__text" d="M140.05 17.80L140.05 17.80Q140.05 16.55 140.65 15.55Q141.26 14.56 142.32 14.00Q143.38 13.43 144.71 13.43L144.71 13.43Q146.04 13.43 147.11 14.00Q148.17 14.56 148.78 15.55Q149.38 16.55 149.38 17.80L149.38 17.80Q149.38 19.05 148.78 20.04Q148.17 21.04 147.11 21.60Q146.05 22.17 144.71 22.17L144.71 22.17Q143.38 22.17 142.32 21.60Q141.26 21.04 140.65 20.04Q140.05 19.05 140.05 17.80ZM142.45 17.80L142.45 17.80Q142.45 18.51 142.75 19.05Q143.05 19.60 143.57 19.90Q144.08 20.20 144.71 20.20L144.71 20.20Q145.35 20.20 145.87 19.90Q146.38 19.60 146.68 19.05Q146.98 18.51 146.98 17.80L146.98 17.80Q146.98 17.09 146.68 16.54Q146.38 16 145.87 15.70Q145.35 15.40 144.71 15.40L144.71 15.40Q144.08 15.40 143.56 15.70Q143.05 16 142.75 16.54Q142.45 17.09 142.45 17.80ZM153.63 19.53L153.63 19.53Q153.63 18.89 153.95 18.40Q154.26 17.91 154.83 17.57L154.83 17.57Q154.40 17.27 154.17 16.84Q153.94 16.41 153.94 15.88L153.94 15.88Q153.94 15.15 154.36 14.59Q154.77 14.03 155.54 13.73Q156.30 13.43 157.28 13.43L157.28 13.43Q158.27 13.43 159.03 13.73Q159.79 14.03 160.21 14.59Q160.63 15.15 160.63 15.88L160.63 15.88Q160.63 16.41 160.40 16.84Q160.17 17.27 159.73 17.57L159.73 17.57Q160.31 17.91 160.62 18.40Q160.93 18.89 160.93 19.53L160.93 19.53Q160.93 20.32 160.48 20.92Q160.02 21.52 159.19 21.84Q158.36 22.17 157.28 22.17L157.28 22.17Q156.20 22.17 155.38 21.84Q154.55 21.52 154.09 20.92Q153.63 20.32 153.63 19.53ZM156.02 19.46L156.02 19.46Q156.02 19.94 156.37 20.22Q156.71 20.50 157.28 20.50L157.28 20.50Q157.86 20.50 158.20 20.22Q158.54 19.94 158.54 19.46L158.54 19.46Q158.54 18.98 158.20 18.70Q157.86 18.41 157.28 18.41L157.28 18.41Q156.71 18.41 156.37 18.70Q156.02 18.98 156.02 19.46ZM156.29 15.99L156.29 15.99Q156.29 16.40 156.56 16.63Q156.83 16.86 157.28 16.86L157.28 16.86Q157.74 16.86 158.02 16.63Q158.29 16.40 158.29 15.99L158.29 15.99Q158.29 15.57 158.02 15.33Q157.74 15.10 157.28 15.10L157.28 15.10Q156.84 15.10 156.56 15.33Q156.29 15.57 156.29 15.99ZM169.60 22L165.63 22L165.63 13.60L169.60 13.60Q170.98 13.60 172.05 14.12Q173.11 14.63 173.70 15.58Q174.29 16.53 174.29 17.80L174.29 17.80Q174.29 19.07 173.70 20.02Q173.11 20.97 172.05 21.48Q170.98 22 169.60 22L169.60 22ZM168.01 15.50L168.01 20.10L169.51 20.10Q170.58 20.10 171.24 19.49Q171.89 18.88 171.89 17.80L171.89 17.80Q171.89 16.72 171.24 16.11Q170.58 15.50 169.51 15.50L169.51 15.50L168.01 15.50ZM178.59 18.03L178.59 18.03Q178.59 16.59 179.15 15.55Q179.71 14.51 180.71 13.97Q181.72 13.43 183.05 13.43L183.05 13.43Q183.77 13.43 184.42 13.59Q185.07 13.74 185.52 14.04L185.52 14.04L184.66 15.75Q184.05 15.31 183.12 15.31L183.12 15.31Q182.20 15.31 181.64 15.82Q181.08 16.32 180.99 17.27L180.99 17.27Q181.71 16.65 182.89 16.65L182.89 16.65Q183.68 16.65 184.34 16.98Q185.00 17.31 185.39 17.91Q185.78 18.52 185.78 19.30L185.78 19.30Q185.78 20.15 185.34 20.80Q184.90 21.46 184.15 21.82Q183.40 22.17 182.48 22.17L182.48 22.17Q180.68 22.17 179.64 21.10Q178.59 20.03 178.59 18.03ZM181.16 19.42L181.16 19.42Q181.16 19.89 181.48 20.18Q181.79 20.48 182.34 20.48L182.34 20.48Q182.84 20.48 183.16 20.19Q183.47 19.90 183.47 19.41L183.47 19.41Q183.47 18.93 183.16 18.64Q182.84 18.35 182.33 18.35L182.33 18.35Q181.81 18.35 181.48 18.65Q181.16 18.94 181.16 19.42ZM192.63 22L190.29 22L190.29 13.60L192.25 13.60L195.96 18.07L195.96 13.60L198.29 13.60L198.29 22L196.34 22L192.63 17.52L192.63 22ZM203.02 17.80L203.02 17.80Q203.02 16.45 203.49 15.46Q203.96 14.46 204.81 13.95Q205.65 13.43 206.72 13.43L206.72 13.43Q207.79 13.43 208.63 13.95Q209.47 14.46 209.95 15.46Q210.42 16.45 210.42 17.80L210.42 17.80Q210.42 19.15 209.95 20.15Q209.47 21.14 208.63 21.65Q207.80 22.17 206.72 22.17L206.72 22.17Q205.65 22.17 204.81 21.65Q203.96 21.14 203.49 20.15Q203.02 19.16 203.02 17.80ZM205.41 17.80L205.41 17.80Q205.41 19.06 205.76 19.64Q206.11 20.22 206.72 20.22L206.72 20.22Q207.33 20.22 207.68 19.64Q208.04 19.06 208.04 17.80L208.04 17.80Q208.04 16.54 207.68 15.96Q207.33 15.38 206.72 15.38L206.72 15.38Q206.11 15.38 205.76 15.96Q205.41 16.54 205.41 17.80ZM217.28 18.95L214.07 13.60L216.58 13.60L218.57 16.94L220.56 13.60L222.87 13.60L219.65 18.99L219.65 22L217.28 22L217.28 18.95ZM234.06 22L226.53 22L226.53 20.51L230.77 15.48L226.64 15.48L226.64 13.60L233.88 13.60L233.88 15.09L229.64 20.11L234.06 20.11L234.06 22ZM240.96 22L238.58 22L238.58 13.60L240.96 13.60L240.96 16.76L244.20 16.76L244.20 13.60L246.57 13.60L246.57 22L244.20 22L244.20 18.72L240.96 18.72L240.96 22ZM251.31 18.03L251.31 18.03Q251.31 16.59 251.86 15.55Q252.42 14.51 253.43 13.97Q254.44 13.43 255.77 13.43L255.77 13.43Q256.49 13.43 257.14 13.59Q257.79 13.74 258.24 14.04L258.24 14.04L257.38 15.75Q256.77 15.31 255.83 15.31L255.83 15.31Q254.92 15.31 254.35 15.82Q253.79 16.32 253.70 17.27L253.70 17.27Q254.43 16.65 255.60 16.65L255.60 16.65Q256.39 16.65 257.05 16.98Q257.71 17.31 258.10 17.91Q258.49 18.52 258.49 19.30L258.49 19.30Q258.49 20.15 258.06 20.80Q257.62 21.46 256.87 21.82Q256.12 22.17 255.19 22.17L255.19 22.17Q253.39 22.17 252.35 21.10Q251.31 20.03 251.31 18.03ZM253.87 19.42L253.87 19.42Q253.87 19.89 254.19 20.18Q254.51 20.48 255.05 20.48L255.05 20.48Q255.56 20.48 255.87 20.19Q256.19 19.90 256.19 19.41L256.19 19.41Q256.19 18.93 255.87 18.64Q255.56 18.35 255.04 18.35L255.04 18.35Q254.52 18.35 254.20 18.65Q253.87 18.94 253.87 19.42Z" fill="#FFFFFF" x="139.29000000000002"/></svg>