<svg xmlns="http://www.w3.org/2000/svg" width="228.49" height="35" viewBox="0 0 228.49 35"><rect class="svg__rect" x="0" y="0" width="106.92" height="35" fill="#31C4F3"/><rect class="svg__rect" x="104.92" y="0" width="123.57" height="35" fill="#389AD5"/><path class="svg__text" d="M13.91 18.00L13.91 18.00L13.91 17.52Q13.91 16.28 14.35 15.32Q14.80 14.37 15.60 13.86Q16.41 13.35 17.45 13.35L17.45 13.35Q18.50 13.35 19.31 13.85Q20.11 14.35 20.55 15.29Q20.99 16.23 21.00 17.48L21.00 17.48L21.00 17.96Q21.00 19.17 20.61 20.06Q20.23 20.95 19.54 21.47L19.54 21.47L21.00 22.61L20.04 23.48L18.23 22.04Q17.87 22.12 17.46 22.12L17.46 22.12Q16.43 22.12 15.61 21.61Q14.80 21.10 14.36 20.17Q13.92 19.23 13.91 18.00ZM15.39 17.46L15.39 17.96Q15.39 19.34 15.94 20.12Q16.48 20.90 17.46 20.90L17.46 20.90Q18.45 20.90 18.98 20.15Q19.51 19.40 19.51 17.96L19.51 17.96L19.51 17.51Q19.51 16.07 18.97 15.33Q18.43 14.58 17.45 14.58L17.45 14.58Q16.49 14.58 15.95 15.33Q15.41 16.09 15.39 17.46L15.39 17.46ZM25.19 18.00L25.19 18.00L25.19 17.52Q25.19 16.28 25.63 15.32Q26.07 14.37 26.88 13.86Q27.68 13.35 28.72 13.35L28.72 13.35Q29.77 13.35 30.58 13.85Q31.39 14.35 31.82 15.29Q32.26 16.23 32.27 17.48L32.27 17.48L32.27 17.96Q32.27 19.17 31.89 20.06Q31.50 20.95 30.81 21.47L30.81 21.47L32.28 22.61L31.31 23.48L29.50 22.04Q29.14 22.12 28.73 22.12L28.73 22.12Q27.70 22.12 26.89 21.61Q26.08 21.10 25.63 20.17Q25.19 19.23 25.19 18.00ZM26.67 17.46L26.67 17.96Q26.67 19.34 27.21 20.12Q27.75 20.90 28.73 20.90L28.73 20.90Q29.72 20.90 30.25 20.15Q30.78 19.40 30.78 17.96L30.78 17.96L30.78 17.51Q30.78 16.07 30.24 15.33Q29.70 14.58 28.72 14.58L28.72 14.58Q27.76 14.58 27.22 15.33Q26.68 16.09 26.67 17.46L26.67 17.46ZM42.49 18.13L42.49 18.13L42.49 17.46Q42.49 15.53 43.42 14.44Q44.35 13.35 46.00 13.35L46.00 13.35Q47.43 13.35 48.27 14.05Q49.10 14.76 49.27 16.08L49.27 16.08L47.82 16.08Q47.57 14.54 46.03 14.54L46.03 14.54Q45.04 14.54 44.52 15.26Q44.00 15.98 43.98 17.37L43.98 17.37L43.98 18.02Q43.98 19.40 44.57 20.17Q45.15 20.93 46.19 20.93L46.19 20.93Q47.32 20.93 47.80 20.42L47.80 20.42L47.80 18.75L46.05 18.75L46.05 17.62L49.28 17.62L49.28 20.89Q48.82 21.50 48.00 21.81Q47.18 22.12 46.13 22.12L46.13 22.12Q45.06 22.12 44.23 21.63Q43.41 21.14 42.96 20.24Q42.51 19.33 42.49 18.13ZM55.38 22L53.90 22L53.90 13.47L56.90 13.47Q58.37 13.47 59.18 14.13Q59.98 14.79 59.98 16.05L59.98 16.05Q59.98 16.90 59.57 17.48Q59.15 18.06 58.41 18.37L58.41 18.37L60.33 21.92L60.33 22L58.74 22L57.03 18.71L55.38 18.71L55.38 22ZM55.38 14.66L55.38 17.52L56.90 17.52Q57.65 17.52 58.07 17.15Q58.50 16.77 58.50 16.11L58.50 16.11Q58.50 15.43 58.11 15.05Q57.72 14.68 56.94 14.66L56.94 14.66L55.38 14.66ZM64.10 18.00L64.10 18.00L64.10 17.52Q64.10 16.28 64.55 15.32Q64.99 14.37 65.79 13.86Q66.60 13.35 67.64 13.35Q68.69 13.35 69.49 13.85Q70.30 14.35 70.74 15.29Q71.18 16.23 71.18 17.48L71.18 17.48L71.18 17.96Q71.18 19.21 70.75 20.16Q70.31 21.10 69.51 21.61Q68.70 22.12 67.65 22.12L67.65 22.12Q66.62 22.12 65.81 21.61Q64.99 21.10 64.55 20.17Q64.11 19.23 64.10 18.00ZM65.59 17.46L65.59 17.96Q65.59 19.36 66.13 20.13Q66.68 20.90 67.65 20.90L67.65 20.90Q68.64 20.90 69.17 20.15Q69.70 19.40 69.70 17.96L69.70 17.96L69.70 17.51Q69.70 16.09 69.16 15.34Q68.63 14.58 67.64 14.58L67.64 14.58Q66.68 14.58 66.14 15.33Q65.60 16.09 65.59 17.46L65.59 17.46ZM75.51 19.16L75.51 19.16L75.51 13.47L76.99 13.47L76.99 19.18Q76.99 20.03 77.42 20.48Q77.86 20.93 78.70 20.93L78.70 20.93Q80.41 20.93 80.41 19.13L80.41 19.13L80.41 13.47L81.89 13.47L81.89 19.17Q81.89 20.53 81.02 21.32Q80.15 22.12 78.70 22.12L78.70 22.12Q77.23 22.12 76.37 21.33Q75.51 20.55 75.51 19.16ZM87.94 22L86.46 22L86.46 13.47L89.72 13.47Q91.15 13.47 91.99 14.21Q92.83 14.96 92.83 16.18L92.83 16.18Q92.83 17.44 92.01 18.13Q91.19 18.83 89.70 18.83L89.70 18.83L87.94 18.83L87.94 22ZM87.94 14.66L87.94 17.64L89.72 17.64Q90.51 17.64 90.93 17.27Q91.34 16.90 91.34 16.19L91.34 16.19Q91.34 15.50 90.92 15.09Q90.50 14.68 89.76 14.66L89.76 14.66L87.94 14.66Z" fill="#FFFFFF"/><path class="svg__text" d="M123.03 20.39L118.59 20.39L118.59 18.84L122.36 13.60L124.82 13.60L121.40 18.51L123.10 18.51L123.10 17.08L125.35 17.08L125.35 18.51L126.60 18.51L126.60 20.39L125.35 20.39L125.35 22L123.03 22L123.03 20.39ZM130.11 21.34L130.11 21.34L130.97 19.55Q131.46 19.88 132.08 20.07Q132.70 20.25 133.30 20.25L133.30 20.25Q133.91 20.25 134.27 20.02Q134.63 19.79 134.63 19.37L134.63 19.37Q134.63 18.55 133.35 18.55L133.35 18.55L132.35 18.55L132.35 17.05L133.85 15.44L130.54 15.44L130.54 13.60L136.61 13.60L136.61 15.09L134.87 16.96Q135.91 17.18 136.47 17.82Q137.03 18.46 137.03 19.37L137.03 19.37Q137.03 20.11 136.63 20.75Q136.22 21.39 135.40 21.78Q134.58 22.17 133.37 22.17L133.37 22.17Q132.48 22.17 131.61 21.95Q130.74 21.74 130.11 21.34ZM141.28 18.03L141.28 18.03Q141.28 16.59 141.84 15.55Q142.39 14.51 143.40 13.97Q144.41 13.43 145.74 13.43L145.74 13.43Q146.46 13.43 147.11 13.59Q147.76 13.74 148.21 14.04L148.21 14.04L147.35 15.75Q146.74 15.31 145.80 15.31L145.80 15.31Q144.89 15.31 144.33 15.82Q143.76 16.32 143.68 17.27L143.68 17.27Q144.40 16.65 145.57 16.65L145.57 16.65Q146.37 16.65 147.02 16.98Q147.68 17.31 148.07 17.91Q148.46 18.52 148.46 19.30L148.46 19.30Q148.46 20.15 148.03 20.80Q147.59 21.46 146.84 21.82Q146.09 22.17 145.16 22.17L145.16 22.17Q143.37 22.17 142.32 21.10Q141.28 20.03 141.28 18.03ZM143.85 19.42L143.85 19.42Q143.85 19.89 144.16 20.18Q144.48 20.48 145.02 20.48L145.02 20.48Q145.53 20.48 145.84 20.19Q146.16 19.90 146.16 19.41L146.16 19.41Q146.16 18.93 145.84 18.64Q145.53 18.35 145.01 18.35L145.01 18.35Q144.50 18.35 144.17 18.65Q143.85 18.94 143.85 19.42ZM152.10 21.34L152.10 21.34L152.96 19.55Q153.45 19.88 154.07 20.07Q154.69 20.25 155.29 20.25L155.29 20.25Q155.90 20.25 156.26 20.02Q156.62 19.79 156.62 19.37L156.62 19.37Q156.62 18.55 155.34 18.55L155.34 18.55L154.34 18.55L154.34 17.05L155.84 15.44L152.53 15.44L152.53 13.60L158.60 13.60L158.60 15.09L156.86 16.96Q157.90 17.18 158.46 17.82Q159.02 18.46 159.02 19.37L159.02 19.37Q159.02 20.11 158.62 20.75Q158.21 21.39 157.39 21.78Q156.57 22.17 155.36 22.17L155.36 22.17Q154.47 22.17 153.60 21.95Q152.73 21.74 152.10 21.34ZM163.05 16.30L163.05 16.30Q163.05 15.45 163.49 14.80Q163.93 14.14 164.68 13.79Q165.43 13.43 166.34 13.43L166.34 13.43Q168.15 13.43 169.20 14.50Q170.24 15.57 170.24 17.57L170.24 17.57Q170.24 19.01 169.68 20.05Q169.12 21.09 168.11 21.63Q167.10 22.17 165.77 22.17L165.77 22.17Q165.06 22.17 164.41 22.01Q163.76 21.84 163.31 21.55L163.31 21.55L164.17 19.85Q164.78 20.28 165.71 20.28L165.71 20.28Q166.62 20.28 167.17 19.79Q167.73 19.29 167.83 18.34L167.83 18.34Q167.11 18.95 165.94 18.95L165.94 18.95Q165.15 18.95 164.49 18.62Q163.83 18.29 163.44 17.68Q163.05 17.08 163.05 16.30ZM165.36 16.19L165.36 16.19Q165.36 16.67 165.68 16.96Q165.99 17.25 166.51 17.25L166.51 17.25Q167.03 17.25 167.35 16.96Q167.67 16.66 167.67 16.18L167.67 16.18Q167.67 15.71 167.35 15.42Q167.04 15.12 166.50 15.12L166.50 15.12Q165.99 15.12 165.68 15.41Q165.36 15.70 165.36 16.19ZM175.83 16.17L174.06 15.19Q174.56 14.37 175.44 13.90Q176.33 13.43 177.54 13.43L177.54 13.43Q178.50 13.43 179.24 13.74Q179.98 14.05 180.39 14.64Q180.81 15.22 180.81 15.99L180.81 15.99Q180.81 16.67 180.51 17.28Q180.22 17.89 179.38 18.65L179.38 18.65L177.80 20.11L181.04 20.11L181.04 22L174.49 22L174.49 20.51L177.64 17.57Q178.09 17.14 178.25 16.83Q178.40 16.53 178.40 16.22L178.40 16.22Q178.40 15.81 178.13 15.58Q177.85 15.35 177.33 15.35L177.33 15.35Q176.86 15.35 176.47 15.56Q176.08 15.77 175.83 16.17L175.83 16.17ZM189.57 20.39L185.13 20.39L185.13 18.84L188.89 13.60L191.35 13.60L187.94 18.51L189.64 18.51L189.64 17.08L191.88 17.08L191.88 18.51L193.13 18.51L193.13 20.39L191.88 20.39L191.88 22L189.57 22L189.57 20.39ZM201.45 20.39L197.01 20.39L197.01 18.84L200.78 13.60L203.24 13.60L199.82 18.51L201.52 18.51L201.52 17.08L203.76 17.08L203.76 18.51L205.01 18.51L205.01 20.39L203.76 20.39L203.76 22L201.45 22L201.45 20.39ZM208.98 18.03L208.98 18.03Q208.98 16.59 209.54 15.55Q210.09 14.51 211.10 13.97Q212.11 13.43 213.44 13.43L213.44 13.43Q214.16 13.43 214.81 13.59Q215.46 13.74 215.91 14.04L215.91 14.04L215.05 15.75Q214.44 15.31 213.50 15.31L213.50 15.31Q212.59 15.31 212.03 15.82Q211.46 16.32 211.38 17.27L211.38 17.27Q212.10 16.65 213.27 16.65L213.27 16.65Q214.06 16.65 214.72 16.98Q215.38 17.31 215.77 17.91Q216.16 18.52 216.16 19.30L216.16 19.30Q216.16 20.15 215.73 20.80Q215.29 21.46 214.54 21.82Q213.79 22.17 212.86 22.17L212.86 22.17Q211.06 22.17 210.02 21.10Q208.98 20.03 208.98 18.03ZM211.55 19.42L211.55 19.42Q211.55 19.89 211.86 20.18Q212.18 20.48 212.72 20.48L212.72 20.48Q213.23 20.48 213.54 20.19Q213.86 19.90 213.86 19.41L213.86 19.41Q213.86 18.93 213.54 18.64Q213.23 18.35 212.71 18.35L212.71 18.35Q212.20 18.35 211.87 18.65Q211.55 18.94 211.55 19.42Z" fill="#FFFFFF" x="117.92"/></svg>