<svg xmlns="http://www.w3.org/2000/svg" width="235.80999999999997" height="35" viewBox="0 0 235.80999999999997 35"><rect class="svg__rect" x="0" y="0" width="94.22" height="35" fill="#E46C17"/><rect class="svg__rect" x="92.22" y="0" width="143.58999999999997" height="35" fill="#D35B09"/><path class="svg__text" d="M15.60 22L13.63 13.47L15.10 13.47L16.43 19.88L18.06 13.47L19.30 13.47L20.91 19.89L22.22 13.47L23.69 13.47L21.72 22L20.31 22L18.68 15.77L17.02 22L15.60 22ZM33.34 22L27.76 22L27.76 13.47L33.30 13.47L33.30 14.66L29.25 14.66L29.25 17.02L32.75 17.02L32.75 18.19L29.25 18.19L29.25 20.82L33.34 20.82L33.34 22ZM40.65 22L37.54 22L37.54 13.47L40.46 13.47Q41.91 13.47 42.66 14.05Q43.42 14.63 43.42 15.78L43.42 15.78Q43.42 16.36 43.10 16.83Q42.79 17.30 42.18 17.56L42.18 17.56Q42.87 17.75 43.25 18.26Q43.63 18.78 43.63 19.51L43.63 19.51Q43.63 20.71 42.85 21.36Q42.08 22 40.65 22L40.65 22ZM39.02 18.15L39.02 20.82L40.67 20.82Q41.36 20.82 41.76 20.47Q42.15 20.13 42.15 19.51L42.15 19.51Q42.15 18.18 40.79 18.15L40.79 18.15L39.02 18.15ZM39.02 14.66L39.02 17.06L40.47 17.06Q41.16 17.06 41.55 16.75Q41.94 16.43 41.94 15.86L41.94 15.86Q41.94 15.23 41.58 14.95Q41.22 14.66 40.46 14.66L40.46 14.66L39.02 14.66ZM47.66 19.42L47.66 19.42L49.14 19.42Q49.14 20.15 49.63 20.55Q50.11 20.95 51.00 20.95L51.00 20.95Q51.78 20.95 52.17 20.63Q52.56 20.32 52.56 19.80L52.56 19.80Q52.56 19.24 52.16 18.94Q51.76 18.63 50.73 18.32Q49.70 18.01 49.09 17.63L49.09 17.63Q47.93 16.90 47.93 15.72L47.93 15.72Q47.93 14.69 48.77 14.02Q49.61 13.35 50.95 13.35L50.95 13.35Q51.84 13.35 52.54 13.68Q53.23 14.01 53.63 14.61Q54.03 15.22 54.03 15.96L54.03 15.96L52.56 15.96Q52.56 15.29 52.14 14.91Q51.72 14.54 50.94 14.54L50.94 14.54Q50.21 14.54 49.81 14.85Q49.41 15.16 49.41 15.71L49.41 15.71Q49.41 16.18 49.84 16.50Q50.28 16.81 51.27 17.10Q52.27 17.40 52.87 17.78Q53.48 18.16 53.76 18.65Q54.04 19.13 54.04 19.79L54.04 19.79Q54.04 20.86 53.22 21.49Q52.40 22.12 51.00 22.12L51.00 22.12Q50.08 22.12 49.30 21.77Q48.52 21.43 48.09 20.83Q47.66 20.22 47.66 19.42ZM59.89 22L58.41 22L58.41 13.47L59.89 13.47L59.89 22ZM66.38 14.66L63.75 14.66L63.75 13.47L70.51 13.47L70.51 14.66L67.85 14.66L67.85 22L66.38 22L66.38 14.66ZM79.85 22L74.27 22L74.27 13.47L79.81 13.47L79.81 14.66L75.75 14.66L75.75 17.02L79.26 17.02L79.26 18.19L75.75 18.19L75.75 20.82L79.85 20.82L79.85 22Z" fill="#FFFFFF"/><path class="svg__text" d="M108.26 22L105.55 22L108.61 17.75L105.68 13.60L108.35 13.60L110.03 16.02L111.69 13.60L114.26 13.60L111.33 17.66L114.45 22L111.72 22L109.98 19.40L108.26 22ZM120.15 22L117.73 22L121.44 13.60L123.78 13.60L127.50 22L125.03 22L124.37 20.37L120.82 20.37L120.15 22ZM122.59 15.93L121.51 18.61L123.67 18.61L122.59 15.93ZM134.23 22L130.64 13.60L133.21 13.60L135.49 19.07L137.82 13.60L140.17 13.60L136.57 22L134.23 22ZM146.70 22L144.32 22L144.32 13.60L146.70 13.60L146.70 22ZM158.62 22L151.88 22L151.88 13.60L158.47 13.60L158.47 15.44L154.23 15.44L154.23 16.85L157.96 16.85L157.96 18.63L154.23 18.63L154.23 20.17L158.62 20.17L158.62 22ZM165.80 22L163.43 22L163.43 13.60L167.27 13.60Q168.41 13.60 169.25 13.98Q170.09 14.35 170.54 15.06Q171.00 15.76 171.00 16.71L171.00 16.71Q171.00 17.62 170.57 18.30Q170.15 18.98 169.36 19.36L169.36 19.36L171.17 22L168.62 22L167.10 19.77L165.80 19.77L165.80 22ZM165.80 15.47L165.80 17.93L167.12 17.93Q167.86 17.93 168.23 17.61Q168.60 17.29 168.60 16.71L168.60 16.71Q168.60 16.12 168.23 15.79Q167.86 15.47 167.12 15.47L167.12 15.47L165.80 15.47ZM175.27 20.75L175.27 20.75Q175.27 20.15 175.66 19.78Q176.05 19.41 176.64 19.41L176.64 19.41Q177.24 19.41 177.63 19.78Q178.01 20.15 178.01 20.75L178.01 20.75Q178.01 21.34 177.62 21.72Q177.23 22.11 176.64 22.11L176.64 22.11Q176.06 22.11 175.67 21.72Q175.27 21.34 175.27 20.75ZM184.09 22L181.66 22L185.37 13.60L187.71 13.60L191.43 22L188.96 22L188.30 20.37L184.75 20.37L184.09 22ZM186.52 15.93L185.44 18.61L187.60 18.61L186.52 15.93ZM195.00 21.24L195.00 21.24L195.78 19.49Q196.34 19.86 197.08 20.09Q197.83 20.32 198.55 20.32L198.55 20.32Q199.91 20.32 199.92 19.64L199.92 19.64Q199.92 19.28 199.53 19.11Q199.14 18.93 198.27 18.74L198.27 18.74Q197.32 18.53 196.69 18.30Q196.05 18.06 195.60 17.55Q195.14 17.03 195.14 16.16L195.14 16.16Q195.14 15.39 195.56 14.77Q195.98 14.15 196.82 13.79Q197.65 13.43 198.86 13.43L198.86 13.43Q199.68 13.43 200.49 13.62Q201.29 13.80 201.91 14.17L201.91 14.17L201.18 15.93Q199.98 15.28 198.85 15.28L198.85 15.28Q198.14 15.28 197.81 15.49Q197.49 15.70 197.49 16.04L197.49 16.04Q197.49 16.37 197.88 16.54Q198.26 16.71 199.11 16.89L199.11 16.89Q200.07 17.10 200.70 17.33Q201.33 17.56 201.79 18.07Q202.26 18.58 202.26 19.46L202.26 19.46Q202.26 20.21 201.84 20.83Q201.42 21.44 200.58 21.80Q199.74 22.17 198.53 22.17L198.53 22.17Q197.52 22.17 196.55 21.92Q195.59 21.67 195.00 21.24ZM209.21 22L206.83 22L206.83 13.60L209.21 13.60L209.21 22ZM215.80 22L213.38 22L217.09 13.60L219.43 13.60L223.14 22L220.68 22L220.02 20.37L216.46 20.37L215.80 22ZM218.24 15.93L217.16 18.61L219.32 18.61L218.24 15.93Z" fill="#FFFFFF" x="105.22"/></svg>