<svg xmlns="http://www.w3.org/2000/svg" width="296.68" height="35" viewBox="0 0 296.68 35"><rect class="svg__rect" x="0" y="0" width="121.80000000000001" height="35" fill="#8FC965"/><rect class="svg__rect" x="119.80000000000001" y="0" width="176.88" height="35" fill="#5D9741"/><path class="svg__text" d="M20.17 22L13.82 22L13.82 21.04L18.23 14.66L13.85 14.66L13.85 13.47L20.03 13.47L20.03 14.41L15.61 20.82L20.17 20.82L20.17 22ZM25.91 22L24.43 22L24.43 13.47L25.91 13.47L25.91 17.02L29.73 17.02L29.73 13.47L31.20 13.47L31.20 22L29.73 22L29.73 18.21L25.91 18.21L25.91 22ZM41.52 22L35.94 22L35.94 13.47L41.48 13.47L41.48 14.66L37.43 14.66L37.43 17.02L40.93 17.02L40.93 18.19L37.43 18.19L37.43 20.82L41.52 20.82L41.52 22ZM47.20 22L45.72 22L45.72 13.47L47.20 13.47L51.01 19.54L51.01 13.47L52.48 13.47L52.48 22L51.00 22L47.20 15.95L47.20 22ZM56.98 18.13L56.98 18.13L56.98 17.46Q56.98 15.53 57.90 14.44Q58.83 13.35 60.49 13.35L60.49 13.35Q61.91 13.35 62.75 14.05Q63.59 14.76 63.76 16.08L63.76 16.08L62.31 16.08Q62.06 14.54 60.52 14.54L60.52 14.54Q59.52 14.54 59.00 15.26Q58.48 15.98 58.47 17.37L58.47 17.37L58.47 18.02Q58.47 19.40 59.05 20.17Q59.63 20.93 60.67 20.93L60.67 20.93Q61.81 20.93 62.29 20.42L62.29 20.42L62.29 18.75L60.53 18.75L60.53 17.62L63.76 17.62L63.76 20.89Q63.30 21.50 62.48 21.81Q61.66 22.12 60.62 22.12L60.62 22.12Q59.55 22.12 58.72 21.63Q57.89 21.14 57.44 20.24Q57.00 19.33 56.98 18.13ZM74.33 22L67.98 22L67.98 21.04L72.39 14.66L68.01 14.66L68.01 13.47L74.19 13.47L74.19 14.41L69.78 20.82L74.33 20.82L74.33 22ZM80.08 22L78.59 22L78.59 13.47L80.08 13.47L80.08 17.02L83.89 17.02L83.89 13.47L85.37 13.47L85.37 22L83.89 22L83.89 18.21L80.08 18.21L80.08 22ZM89.84 18.00L89.84 18.00L89.84 17.52Q89.84 16.28 90.28 15.32Q90.72 14.37 91.53 13.86Q92.33 13.35 93.38 13.35Q94.42 13.35 95.23 13.85Q96.03 14.35 96.47 15.29Q96.91 16.23 96.92 17.48L96.92 17.48L96.92 17.96Q96.92 19.21 96.48 20.16Q96.05 21.10 95.24 21.61Q94.44 22.12 93.39 22.12L93.39 22.12Q92.35 22.12 91.54 21.61Q90.73 21.10 90.29 20.17Q89.84 19.23 89.84 18.00ZM91.32 17.46L91.32 17.96Q91.32 19.36 91.87 20.13Q92.42 20.90 93.39 20.90L93.39 20.90Q94.37 20.90 94.90 20.15Q95.43 19.40 95.43 17.96L95.43 17.96L95.43 17.51Q95.43 16.09 94.90 15.34Q94.36 14.58 93.38 14.58L93.38 14.58Q92.42 14.58 91.87 15.33Q91.33 16.09 91.32 17.46L91.32 17.46ZM101.25 19.16L101.25 19.16L101.25 13.47L102.72 13.47L102.72 19.18Q102.72 20.03 103.16 20.48Q103.59 20.93 104.43 20.93L104.43 20.93Q106.14 20.93 106.14 19.13L106.14 19.13L106.14 13.47L107.62 13.47L107.62 19.17Q107.62 20.53 106.75 21.32Q105.88 22.12 104.43 22.12L104.43 22.12Q102.97 22.12 102.11 21.33Q101.25 20.55 101.25 19.16Z" fill="#FFFFFF"/><path class="svg__text" d="M136.19 22L133.99 22L133.99 13.60L135.94 13.60L138.90 18.45L141.78 13.60L143.73 13.60L143.76 22L141.58 22L141.55 17.55L139.39 21.17L138.34 21.17L136.19 17.67L136.19 22ZM148.49 17.80L148.49 17.80Q148.49 16.54 149.09 15.54Q149.69 14.55 150.74 13.99Q151.79 13.43 153.11 13.43L153.11 13.43Q154.26 13.43 155.18 13.84Q156.11 14.25 156.72 15.02L156.72 15.02L155.21 16.39Q154.40 15.40 153.23 15.40L153.23 15.40Q152.54 15.40 152.01 15.70Q151.48 16 151.18 16.54Q150.89 17.09 150.89 17.80L150.89 17.80Q150.89 18.51 151.18 19.05Q151.48 19.60 152.01 19.90Q152.54 20.20 153.23 20.20L153.23 20.20Q154.40 20.20 155.21 19.22L155.21 19.22L156.72 20.58Q156.11 21.35 155.19 21.76Q154.26 22.17 153.11 22.17L153.11 22.17Q151.79 22.17 150.74 21.61Q149.69 21.05 149.09 20.05Q148.49 19.06 148.49 17.80ZM160.74 20.75L160.74 20.75Q160.74 20.15 161.13 19.78Q161.52 19.41 162.11 19.41L162.11 19.41Q162.71 19.41 163.09 19.78Q163.48 20.15 163.48 20.75L163.48 20.75Q163.48 21.34 163.09 21.72Q162.70 22.11 162.11 22.11L162.11 22.11Q161.53 22.11 161.14 21.72Q160.74 21.34 160.74 20.75ZM169.99 22L167.28 22L170.33 17.75L167.40 13.60L170.08 13.60L171.76 16.02L173.42 13.60L175.99 13.60L173.06 17.66L176.18 22L173.44 22L171.70 19.40L169.99 22ZM181.88 22L179.46 22L183.17 13.60L185.51 13.60L189.22 22L186.76 22L186.10 20.37L182.54 20.37L181.88 22ZM184.32 15.93L183.24 18.61L185.40 18.61L184.32 15.93ZM195.96 22L192.37 13.60L194.94 13.60L197.22 19.07L199.55 13.60L201.90 13.60L198.30 22L195.96 22ZM208.43 22L206.05 22L206.05 13.60L208.43 13.60L208.43 22ZM220.35 22L213.61 22L213.61 13.60L220.20 13.60L220.20 15.44L215.96 15.44L215.96 16.85L219.69 16.85L219.69 18.63L215.96 18.63L215.96 20.17L220.35 20.17L220.35 22ZM227.53 22L225.15 22L225.15 13.60L229.00 13.60Q230.14 13.60 230.98 13.98Q231.82 14.35 232.27 15.06Q232.73 15.76 232.73 16.71L232.73 16.71Q232.73 17.62 232.30 18.30Q231.87 18.98 231.08 19.36L231.08 19.36L232.89 22L230.35 22L228.83 19.77L227.53 19.77L227.53 22ZM227.53 15.47L227.53 17.93L228.85 17.93Q229.58 17.93 229.96 17.61Q230.33 17.29 230.33 16.71L230.33 16.71Q230.33 16.12 229.96 15.79Q229.58 15.47 228.85 15.47L228.85 15.47L227.53 15.47ZM237.00 20.75L237.00 20.75Q237.00 20.15 237.39 19.78Q237.78 19.41 238.37 19.41L238.37 19.41Q238.97 19.41 239.35 19.78Q239.74 20.15 239.74 20.75L239.74 20.75Q239.74 21.34 239.35 21.72Q238.96 22.11 238.37 22.11L238.37 22.11Q237.79 22.11 237.40 21.72Q237.00 21.34 237.00 20.75ZM245.81 22L243.39 22L247.10 13.60L249.44 13.60L253.16 22L250.69 22L250.03 20.37L246.48 20.37L245.81 22ZM248.25 15.93L247.17 18.61L249.33 18.61L248.25 15.93ZM256.72 21.24L256.72 21.24L257.50 19.49Q258.07 19.86 258.81 20.09Q259.55 20.32 260.28 20.32L260.28 20.32Q261.64 20.32 261.65 19.64L261.65 19.64Q261.65 19.28 261.26 19.11Q260.87 18.93 260.00 18.74L260.00 18.74Q259.05 18.53 258.41 18.30Q257.78 18.06 257.32 17.55Q256.87 17.03 256.87 16.16L256.87 16.16Q256.87 15.39 257.29 14.77Q257.71 14.15 258.54 13.79Q259.38 13.43 260.59 13.43L260.59 13.43Q261.41 13.43 262.22 13.62Q263.02 13.80 263.64 14.17L263.64 14.17L262.91 15.93Q261.70 15.28 260.57 15.28L260.57 15.28Q259.86 15.28 259.54 15.49Q259.22 15.70 259.22 16.04L259.22 16.04Q259.22 16.37 259.60 16.54Q259.99 16.71 260.84 16.89L260.84 16.89Q261.80 17.10 262.43 17.33Q263.06 17.56 263.52 18.07Q263.98 18.58 263.98 19.46L263.98 19.46Q263.98 20.21 263.57 20.83Q263.15 21.44 262.31 21.80Q261.46 22.17 260.26 22.17L260.26 22.17Q259.24 22.17 258.28 21.92Q257.32 21.67 256.72 21.24ZM270.94 22L268.56 22L268.56 13.60L270.94 13.60L270.94 22ZM277.53 22L275.11 22L278.81 13.60L281.16 13.60L284.87 22L282.41 22L281.74 20.37L278.19 20.37L277.53 22ZM279.97 15.93L278.88 18.61L281.05 18.61L279.97 15.93Z" fill="#FFFFFF" x="132.8"/></svg>